<svg xmlns="http://www.w3.org/2000/svg" height="40" viewBox="0 96 960 960" width="40"><path d="M446.667 846.001V698q0-14.167 9.617-23.75t23.833-9.583q14.216 0 23.716 9.583 9.5 9.583 9.5 23.75v147.667l59.001-59.333q10.087-10 24.376-10 14.29 0 24.29 10.069 10 10.068 10 24.333Q631 825 621 835L503.333 952.667q-10 10-23.333 10-13.333 0-23.333-10l-118-118q-10-10-9.834-24.167Q329 796.334 339 786.334t24.055-10q14.056 0 24.278 10l59.334 59.667ZM210.333 609l56 56q10 10.087 10 24.377t-10.069 24.29q-10.069 10-24.333 10-14.264 0-24.264-10L103.333 599.333q-10-10-10-23.333 0-13.333 10-23.333l115-115q10.222-10 24.278-10 14.055 0 24.055 10t10 24.055q0 14.056-10 24.278l-56.667 56.667h148.334q14.385 0 23.692 9.297 9.308 9.298 9.308 23.667 0 14.369-9.308 23.869-9.307 9.5-23.692 9.5h-148Zm539.668 0H602.333q-14.384 0-23.692-9.298-9.307-9.297-9.307-23.666t9.583-23.869q9.583-9.5 23.75-9.5l147 .333-56-56q-10-10.087-10-24.377t10.069-24.29q10.069-10 24.333-10 14.264 0 24.264 10l114.334 114.334q10 10 10 23.333 0 13.333-10 23.333L742 714q-10 10-24.166 9.833-14.167-.166-24.167-10.166-10-10-10-24t10-24L750.001 609ZM446.667 305.999l-56.334 56.334q-10 10-24 9.833-14-.166-24-10.166t-10-24.056q0-14.055 10-24.277l114.334-114.334q10-10 23.333-10 13.333 0 23.333 10L618 314q10 10 10 24t-10 24q-10 10-24.056 10-14.055 0-24.277-10l-56.334-56.001v147.334q0 14.167-9.617 23.75t-23.833 9.583q-14.216 0-23.716-9.583-9.5-9.583-9.5-23.75V305.999Z"/></svg>