<svg xmlns="http://www.w3.org/2000/svg" height="40" viewBox="0 96 960 960" width="40"><path d="M479.883 616q-17.233 0-29.391-12.25-12.158-12.25-12.158-30.083V235q0-17.183 12.271-29.425 12.272-12.241 29.5-12.241t29.728 12.241q12.5 12.242 12.5 29.425v338.667q0 17.833-12.467 30.083T479.883 616ZM480 957.333q-78.778 0-148.337-30.155-69.559-30.156-121.122-81.719-51.563-51.563-81.718-121.122Q98.667 654.778 98.667 576q0-71.39 26.167-137.528Q151 372.333 200.001 319q11.666-13 30.666-14.667 19-1.666 31.608 11.29 11.392 11.71 10.892 27.71t-10.834 29Q223.667 414.666 203.166 467q-20.5 52.333-20.5 109 0 123.736 86.834 210.535 86.834 86.799 210.619 86.799 123.786 0 210.5-86.729 86.715-86.728 86.715-210.363 0-58.242-20.93-110.612-20.929-52.369-60.071-95.964-10-12.333-9.5-27.999.5-15.667 11.834-26.334 13.666-13.666 32.666-10.5 19 3.167 33.333 17.834Q813 375 837.166 440.146 861.333 505.292 861.333 576q0 78.778-30.156 148.337-30.155 69.559-81.718 121.122t-121.122 81.719Q558.778 957.333 480 957.333Z"/></svg>