<svg xmlns="http://www.w3.org/2000/svg" height="40" viewBox="0 96 960 960" width="40"><path d="M480 896q-133.333 0-226.667-93.333Q160 709.333 160 576t93.333-226.667Q346.667 256 480 256q79.667 0 143.334 32.5 63.666 32.5 110 90.167v-89.334q0-14.333 9.5-23.833 9.5-9.5 23.833-9.5 14.333 0 23.833 9.5 9.5 9.5 9.5 23.833v196q0 14.333-9.5 23.833-9.5 9.5-23.833 9.5h-196q-14.333 0-23.833-9.5-9.5-9.5-9.5-23.833 0-14.333 9.5-23.833 9.5-9.5 23.833-9.5h134.667q-36-58.667-93.834-94-57.833-35.334-131.5-35.334-106 0-179.667 73.667T226.666 576q0 106 73.667 179.667T480 829.334q72.667 0 134.834-37.834Q677 753.667 708.667 689.667q6-12 18.5-17.5t24.833-.5q13.333 5 18.333 18 5 13-1 25.666Q729.667 798 652 847t-172 49Z"/></svg>